<?xml version="1.0" standalone="no"?>
<svg
  width="600"
  height="600"
  viewBox="0 0 600 600"
  xmlns="http://www.w3.org/2000/svg"
>
  <g transform="translate(300,300)">
    <path d="M125.7,-211.7C155.9,-176.2,168.4,-129.4,181.5,-87C194.6,-44.5,208.2,-6.3,211.2,36.3C214.3,78.9,206.9,125.9,180.6,156.7C154.2,187.5,109,202.2,64.1,212.7C19.3,223.2,-25,229.6,-64.8,218.8C-104.6,208,-140,180,-168,146.3C-196.1,112.7,-216.8,73.4,-231.1,28.2C-245.4,-17,-253.2,-68.1,-235.9,-108.4C-218.6,-148.7,-176,-178.3,-132.5,-207.7C-89,-237.2,-44.5,-266.6,1.6,-269.1C47.8,-271.6,95.5,-247.3,125.7,-211.7Z" fill="#abb8c3" />
  </g>
</svg>
  