<?xml version="1.0" encoding="UTF-8" standalone="no"?>
<svg
   xmlns:dc="http://purl.org/dc/elements/1.1/"
   xmlns:cc="http://creativecommons.org/ns#"
   xmlns:rdf="http://www.w3.org/1999/02/22-rdf-syntax-ns#"
   xmlns:svg="http://www.w3.org/2000/svg"
   xmlns="http://www.w3.org/2000/svg"
   xmlns:sodipodi="http://sodipodi.sourceforge.net/DTD/sodipodi-0.dtd"
   xmlns:inkscape="http://www.inkscape.org/namespaces/inkscape"
   id="svg285"
   version="1.2"
   viewBox="0 0 275.71439 193.41298"
   height="193.41298pt"
   width="275.71439pt"
   sodipodi:docname="head-bottom.svg"
   inkscape:version="0.92.3 (2405546, 2018-03-11)">
  <sodipodi:namedview
     pagecolor="#ffffff"
     bordercolor="#666666"
     borderopacity="1"
     objecttolerance="10"
     gridtolerance="10"
     guidetolerance="10"
     inkscape:pageopacity="0"
     inkscape:pageshadow="2"
     inkscape:window-width="1916"
     inkscape:window-height="1036"
     id="namedview41"
     showgrid="false"
     inkscape:zoom="7.3211219"
     inkscape:cx="145.15283"
     inkscape:cy="190.49078"
     inkscape:window-x="0"
     inkscape:window-y="20"
     inkscape:window-maximized="0"
     inkscape:current-layer="svg285" />
  <metadata
     id="metadata289">
    <rdf:RDF>
      <cc:Work
         rdf:about="">
        <dc:format>image/svg+xml</dc:format>
        <dc:type
           rdf:resource="http://purl.org/dc/dcmitype/StillImage" />
        <dc:title />
      </cc:Work>
    </rdf:RDF>
  </metadata>
  <defs
     id="defs32">
    <clipPath
       id="clip1">
      <path
         id="path2"
         d="m 237,150 h 26 v 7 h -26 z m 0,0" />
    </clipPath>
    <clipPath
       id="clip2">
      <path
         id="path5"
         d="m 237.46094,146.45312 c 0,0 13.62109,-2.34765 24.88281,0 0,0 -11.53906,21.97266 -24.88281,0" />
    </clipPath>
    <clipPath
       id="clip3">
      <path
         id="path8"
         d="m 238,380 h 23 v 17 h -23 z m 0,0" />
    </clipPath>
    <clipPath
       id="clip4">
      <path
         id="path11"
         d="m 249.90234,396.86328 c -4.05078,0 -7.82422,-1.52734 -10.99609,-4.14844 v -12.34375 h 21.99219 v 12.34375 c -3.16797,2.6211 -6.94532,4.14844 -10.9961,4.14844" />
    </clipPath>
    <clipPath
       id="clip5">
      <path
         id="path14"
         d="m 391,380 h 23 v 17 h -23 z m 0,0" />
    </clipPath>
    <clipPath
       id="clip6">
      <path
         id="path17"
         d="m 402.80469,396.86328 c -4.05078,0 -7.82422,-1.52734 -10.9961,-4.14844 v -12.34375 h 21.9961 v 12.34375 c -3.17188,2.6211 -6.94532,4.14844 -11,4.14844" />
    </clipPath>
    <clipPath
       id="clip7">
      <path
         id="path20"
         d="m 379,419 h 5 v 26 h -5 z m 0,0" />
    </clipPath>
    <clipPath
       id="clip8">
      <path
         id="path23"
         d="m 462.20312,444.91797 c -0.85937,-5.57422 -3.23046,-10.83203 -5.55078,-15.26563 -3.35547,-6.41797 -6.91015,-11.08593 -12.36328,-13.76172 -12.76562,-6.26171 -26.57812,-8.43359 -39.85547,-11.45312 -0.58984,-0.13281 -1.13281,-0.14844 -1.6289,-0.0703 -0.5,-0.0781 -1.04297,-0.0625 -1.62891,0.0703 -13.27734,3.01953 -27.08984,5.19141 -39.85937,11.45312 -5.45313,2.67579 -9.00391,7.34375 -12.36329,13.76172 -2.3164,4.4336 -4.68359,9.69141 -5.54296,15.26563 h 118.79296" />
    </clipPath>
    <clipPath
       id="clip9">
      <path
         id="path26"
         d="m 421,419 h 6 v 26 h -6 z m 0,0" />
    </clipPath>
    <clipPath
       id="clip10">
      <path
         id="path29"
         d="m 462.20312,444.91797 c -0.85937,-5.57422 -3.23046,-10.83203 -5.55078,-15.26563 -3.35547,-6.41797 -6.91015,-11.08593 -12.36328,-13.76172 -12.76562,-6.26171 -26.57812,-8.43359 -39.85547,-11.45312 -0.58984,-0.13281 -1.13281,-0.14844 -1.6289,-0.0703 -0.5,-0.0781 -1.04297,-0.0625 -1.62891,0.0703 -13.27734,3.01953 -27.08984,5.19141 -39.85937,11.45312 -5.45313,2.67579 -9.00391,7.34375 -12.36329,13.76172 -2.3164,4.4336 -4.68359,9.69141 -5.54296,15.26563 h 118.79296" />
    </clipPath>
  </defs>
  <g
     transform="matrix(2.5307616,0,0,2.5307616,-494.58643,-810.95337)"
     clip-path="url(#clip3)"
     id="g198"
     style="clip-rule:nonzero">
    <g
       clip-path="url(#clip4)"
       id="g196"
       style="clip-rule:nonzero">
      <path
         style="fill:#f36635;fill-opacity:1;fill-rule:nonzero;stroke:none"
         d="m 238.90625,396.86328 h 21.99219 v -16.49219 h -21.99219 z m 0,0"
         id="path194" />
    </g>
  </g>
  <path
     id="path200-3"
     d="m 41.173787,13.275652 c -0.57508,12.77408 -0.82065,25.56049 -0.63135,38.31591 0.35587,23.48863 -1.40409,50.318428 6.01026,72.887688 11.47737,34.85729 55.329793,43.35849 86.124023,52.02833 1.84863,0.51406 3.56937,0.66317 5.17089,0.53466 1.60149,0.12856 3.33177,-0.021 5.16065,-0.53466 30.69538,-8.64018 72.03808,-16.66755 85.29492,-49.92335 8.55121,-21.47192 6.19712,-48.370228 6.77051,-71.058098 0.35639,-14.05724 0.11801,-28.16232 -0.52881,-42.25048 z"
     style="fill:#f8a36e;fill-opacity:1;fill-rule:nonzero;stroke:none;stroke-width:2.53076172" />
  <path
     style="fill:#f8a36e;fill-opacity:1;fill-rule:nonzero;stroke:none;stroke-width:2.53076172"
     d="m 40.066627,42.150562 c -16.62789,-15.06595 -41.3127105,-15.94577 -40.01767046,13.00969 0.42509,9.26299 4.42882996,18.19974 11.05232046,24.69471 8.72913,8.55119 21.10614,10.38007 32.65274,8.03714 6.44553,-1.30493 10.94357,-8.09646 10.94357,-14.38383 0,-12.70324 -6.29724,-23.81485 -14.63096,-31.35771"
     id="path204" />
  <path
     style="fill:#f8a36e;fill-opacity:1;fill-rule:nonzero;stroke:none;stroke-width:2.53076172"
     d="m 235.65692,42.150562 c 16.61802,-15.06595 41.31271,-15.94577 40.0078,13.00969 -0.42509,9.26299 -4.42883,18.19974 -11.05232,24.69471 -8.71926,8.55119 -21.10614,10.38007 -32.64287,8.03714 -6.44553,-1.30493 -10.94357,-8.09646 -10.94357,-14.38383 0,-12.70324 6.29726,-23.81485 14.63096,-31.35771"
     id="path206" />
  <path
     style="fill:#552200;fill-opacity:1;fill-rule:nonzero;stroke:none;stroke-width:2.53076172"
     d="m 120.4875,19.077132 c 15.33287,19.74191 11.95193,50.7833 -4.57711,68.8545 -1.06768,1.17643 -1.28514,2.74826 -0.53384,4.16192 2.7087,5.07142 6.32691,8.748938 10.60746,12.594508 3.36116,3.03494 8.37325,-1.95739 4.98244,-4.972568 -1.48288,-1.32467 -9.70785,-7.52307 -7.68127,-10.30098 2.72849,-3.70716 4.81437,-7.68127 6.71244,-11.86295 3.11403,-6.87061 4.48816,-14.2553 5.2197,-21.70917 1.42355,-14.34428 -3.114,-28.27337 -12.25838,-39.22681 -1.46308,-1.74979 -3.80601,0.73154 -2.47144,2.46155"
     id="path208" />
  <path
     style="fill:#231411;fill-opacity:1;fill-rule:nonzero;stroke:none;stroke-width:2.53076172"
     d="m 95.842239,54.122252 c 0,6.98926 -4.60677,12.65381 -10.291122,12.65381 -5.67442,0 -10.27132,-5.66455 -10.27132,-12.65381 0,-6.98925 4.5969,-12.6538 10.27132,-12.6538 5.684352,0 10.291122,5.66455 10.291122,12.6538"
     id="path210" />
  <path
     style="fill:#231411;fill-opacity:1;fill-rule:nonzero;stroke:none;stroke-width:2.53076172"
     d="m 200.44375,54.122252 c 0,6.98926 -4.60677,12.65381 -10.29109,12.65381 -5.67445,0 -10.27135,-5.66455 -10.27135,-12.65381 0,-6.98925 4.5969,-12.6538 10.27135,-12.6538 5.68432,0 10.29109,5.66455 10.29109,12.6538"
     id="path212" />
  <path
     style="fill:#552200;fill-opacity:1;fill-rule:nonzero;stroke:none;stroke-width:2.53076172"
     d="m 36.754867,60.113052 c -1.15663,-3.98398 -5.17024,-6.28738 -8.60061,-8.20521 -4.05319,-2.26385 -8.51166,-3.4897 -13.09867,-3.94445 -4.42883,-0.43496 -4.25089,6.25771 0,6.82121 1.60149,0.2174 3.1239,0.6228 4.61664,1.15664 -2.22428,2.99538 -2.73836,6.69267 -1.71023,10.49871 1.09733,4.06304 4.9429,9.39148 9.70785,8.80822 2.65927,-0.32622 4.28055,-3.22275 2.23418,-5.39764 -1.71024,-1.81898 -3.80602,-2.93606 -4.78471,-5.38774 -0.7711,-1.93762 -1.01825,-4.17181 -0.27682,-6.08964 2.83724,1.69045 5.19993,4.38928 8.44247,5.2098 2.05625,0.51405 4.07296,-1.36423 3.4699,-3.4699"
     id="path214" />
  <path
     style="fill:#552200;fill-opacity:1;fill-rule:nonzero;stroke:none;stroke-width:2.53076172"
     d="m 240.94583,60.113052 c 1.14674,-3.98398 5.17027,-6.28738 8.59075,-8.20521 4.05317,-2.26385 8.51166,-3.4897 13.10856,-3.94445 4.42883,-0.43496 4.241,6.25771 0,6.82121 -1.60152,0.2174 -3.13379,0.6228 -4.62656,1.15664 2.23418,2.99538 2.74825,6.69267 1.72013,10.49871 -1.09731,4.06304 -4.9429,9.39148 -9.71772,8.80822 -2.6593,-0.32622 -4.28055,-3.22275 -2.22431,-5.39764 1.70034,-1.81898 3.80604,-2.93606 4.77484,-5.38774 0.7711,-1.93762 1.02812,-4.17181 0.28668,-6.08964 -2.83721,1.69045 -5.19993,4.38928 -8.44246,5.2098 -2.05625,0.51405 -4.08283,-1.36423 -3.46991,-3.4699"
     id="path216" />
  <path
     style="fill:#ffffff;fill-opacity:1;fill-rule:nonzero;stroke:none;stroke-width:2.53076172"
     d="m 113.98266,122.44292 c 9.26299,13.39525 36.04359,12.36713 44.28833,-2.05624 l -44.28833,2.05624"
     id="path218" />
  <path
     style="fill:#1a1a1a;fill-opacity:1;fill-rule:nonzero;stroke:none;stroke-width:2.53076172"
     d="m 79.510927,26.273982 c 2.89653,-1.65092 5.96111,-1.69047 8.798342,-2.22429 1.78933,-0.33613 2.55053,-0.51407 4.01364,-0.66235 4.22121,-0.43498 6.88051,-2.06614 9.866001,-4.92314 3.55888,-3.41058 4.06306,-10.4888203 0,-13.8104403 -2.797691,-2.28361 -5.931481,-4.95277995 -9.866001,-4.62653995 -3.4205,0.28669 -6.890402,0.66235 -10.202132,1.59159995 -6.37636,1.77945 -11.65535,6.66304 -15.27356,12.0013503 -5.39763,7.94819 4.97255,17.04311 12.66371,12.65381"
     id="path226" />
  <path
     style="fill:#1a1a1a;fill-opacity:1;fill-rule:nonzero;stroke:none;stroke-width:2.53076172"
     d="m 195.50087,26.273982 c -2.90643,-1.65092 -5.97103,-1.69047 -8.80824,-2.22429 -1.78932,-0.33613 -2.55053,-0.51407 -4.01364,-0.66235 -4.22123,-0.43498 -6.87061,-2.06614 -9.86602,-4.92314 -3.55888,-3.41058 -4.06306,-10.4888203 0,-13.8104403 2.80758,-2.28361 5.94137,-4.95277995 9.86602,-4.62653995 3.42048,0.28669 6.89041,0.66235 10.20214,1.59159995 6.37633,1.77945 11.65534,6.66304 15.27355,12.0013503 5.39763,7.94819 -4.97257,17.04311 -12.65381,12.65381"
     id="path228" />
  <path
     id="path220-6-5-6"
     d="m 35.930407,13.093575 c 1.09689,11.13371 3.04362,22.12694 4.32714,31.80176 0.99846,7.50331 13.15827,11.08089 14.64111,1.97607 1.85413,-11.37375 2.26627,-22.33214 2.30567,-33.77783 z m 187.921863,0 c 0.15501,11.33958 0.38263,22.40735 2.23828,33.77783 1.4829,9.10482 13.64266,5.52724 14.64112,-1.97607 1.26267,-9.50322 3.51874,-20.42268 5.47558,-31.80176 z"
     style="fill:#1a1a1a;fill-opacity:0.99551571;fill-rule:nonzero;stroke:none;stroke-width:2.53076172"
     inkscape:connector-curvature="0" />
  <path
     id="path1366"
     d="m 51.764217,77.264822 a 11.999568,12.788778 0 0 0 -12.18493,12.57422 c 0,0 -0.86974,24.360408 11.14768,48.949208 12.0174,24.58881 38.902822,49.45074 86.637773,49.24805 47.70226,-0.20255 76.26693,-24.51171 90.74097,-48.52539 14.47404,-24.01368 16.39623,-48.152338 16.39623,-48.152338 a 11.999568,12.788778 0 1 0 -23.90254,-2.25391 c 0,0 -1.59204,18.182488 -12.6834,36.583988 -11.09135,18.40149 -30.14379,36.60145 -70.64655,36.77343 -40.470071,0.17184 -56.456663,-17.47465 -65.260553,-35.48828 -8.8039,-18.01363 -8.4446,-36.349608 -8.4446,-36.349608 a 11.999568,12.788778 0 0 0 -11.80008,-13.35937 z"
     style="color:#000000;font-style:normal;font-variant:normal;font-weight:normal;font-stretch:normal;font-size:medium;line-height:normal;font-family:sans-serif;font-variant-ligatures:normal;font-variant-position:normal;font-variant-caps:normal;font-variant-numeric:normal;font-variant-alternates:normal;font-feature-settings:normal;text-indent:0;text-align:start;text-decoration:none;text-decoration-line:none;text-decoration-style:solid;text-decoration-color:#000000;letter-spacing:normal;word-spacing:normal;text-transform:none;writing-mode:lr-tb;direction:ltr;text-orientation:mixed;dominant-baseline:auto;baseline-shift:baseline;text-anchor:start;white-space:normal;shape-padding:0;clip-rule:nonzero;display:inline;overflow:visible;visibility:visible;opacity:1;isolation:auto;mix-blend-mode:normal;color-interpolation:sRGB;color-interpolation-filters:linearRGB;solid-color:#000000;solid-opacity:1;vector-effect:none;fill:#1a1a1a;fill-opacity:1;fill-rule:nonzero;stroke:none;stroke-width:24.77330208;stroke-linecap:round;stroke-linejoin:round;stroke-miterlimit:4;stroke-dasharray:none;stroke-dashoffset:0;stroke-opacity:1;color-rendering:auto;image-rendering:auto;shape-rendering:auto;text-rendering:auto;enable-background:accumulate" />
</svg>
