<?xml version="1.0" encoding="UTF-8" standalone="no"?>
<svg
   xmlns:dc="http://purl.org/dc/elements/1.1/"
   xmlns:cc="http://creativecommons.org/ns#"
   xmlns:rdf="http://www.w3.org/1999/02/22-rdf-syntax-ns#"
   xmlns:svg="http://www.w3.org/2000/svg"
   xmlns="http://www.w3.org/2000/svg"
   id="svg1376"
   version="1.1"
   viewBox="0 0 85.16729 49.860603"
   height="49.860603mm"
   width="85.16729mm">
  <defs
     id="defs1370" />
  <metadata
     id="metadata1373">
    <rdf:RDF>
      <cc:Work
         rdf:about="">
        <dc:format>image/svg+xml</dc:format>
        <dc:type
           rdf:resource="http://purl.org/dc/dcmitype/StillImage" />
        <dc:title></dc:title>
      </cc:Work>
    </rdf:RDF>
  </metadata>
  <g
     transform="translate(-21.67231,26.531493)"
     id="layer1">
    <path
       id="path200-3-7"
       d="m 65.588339,-11.816249 c -12.596788,0.108108 -30.012905,5.87635 -31.407894,21.092253 -0.424286,4.64576 -0.759647,9.313595 -0.969963,13.985708 h 68.217008 c -0.21487,-4.680143 -0.5568,-9.355114 -0.98133,-14.006378 -1.349664,-14.74161 -23.450255,-21.169229 -34.857821,-21.071583 z"
       style="fill:#f8a36e;fill-opacity:1;fill-rule:nonzero;stroke:none;stroke-width:0.89279652" />
    <path
       id="path220-6-5-6-1"
       d="m 69.965199,-26.531405 c -14.552533,-0.03136 -30.213299,8.320261 -40.673471,18.074877 -1.419409,1.325245 -5.684468,4.65926 -5.255497,7.24347 0.519642,3.121318 5.87949,3.320203 7.940595,3.93052 -0.582402,0.969512 -1.234413,1.883383 -1.897035,2.793629 -2.688855,3.672311 -5.081352,7.602561 -7.731842,11.306281 -1.381044,1.928574 -0.582189,4.830075 1.824172,4.92424 2.414665,0.09485 4.74308,-0.105066 7.010425,-0.518319 0.04673,0.702204 0.109195,1.404514 0.178305,2.105819 h 7.504959 c 0.0011,-0.289375 0.0028,-0.577374 0.0025,-0.86868 0,-1.145143 0.03704,-2.308066 0.07959,-3.477816 7.657412,-2.948834 14.847095,-7.605818 22.557794,-10.758514 -0.816081,1.035765 -1.729819,1.995144 -2.692347,2.922826 -2.165747,2.088991 0.223176,5.234464 2.510949,4.822954 7.491121,-1.353155 14.748507,-4.728633 21.106209,-9.328623 1.124903,-0.813541 2.667024,-2.012342 4.30567,-3.438552 0.155628,0.212276 0.320146,0.41783 0.496623,0.613384 0.313873,1.440365 0.763747,2.786459 1.20663,3.829235 1.628669,3.846695 4.607033,7.662251 9.022199,8.000548 0.04187,1.712359 0.125201,3.424399 0.15658,5.098391 0.01479,0.869871 0.02548,1.726565 0.03721,2.584847 h 7.886293 c 1.15812,-6.734442 2.0187,-13.926135 0.42582,-19.987392 -1.21715,-4.64185 -3.87813,-8.620919 -8.938478,-11.222592 -0.411033,-0.211483 -0.832355,-0.38645 -1.25935,-0.527078 0.639286,-2.101321 0.512286,-4.130993 -0.846974,-5.890102 -6.755643,-8.748674 -15.629104,-12.213245 -24.957654,-12.233353 z"
       style="fill:#1a1a1a;fill-opacity:1;fill-rule:nonzero;stroke:none;stroke-width:0.89279652" />
  </g>
</svg>
